<?xml version="1.0" encoding="UTF-8"?>
<svg id="Layer_2" data-name="Layer 2" xmlns="http://www.w3.org/2000/svg" xmlns:xlink="http://www.w3.org/1999/xlink" viewBox="0 0 216.35 89.31">
  <defs>
    <style>
      .cls-1 {
        fill: url(#linear-gradient-2);
      }

      .cls-2 {
        fill: #ff5100;
      }

      .cls-3 {
        fill: url(#linear-gradient);
      }
    </style>
    <linearGradient id="linear-gradient" x1="0" y1="84.43" x2="216.35" y2="84.43" gradientUnits="userSpaceOnUse">
      <stop offset="0" stop-color="#fff"/>
      <stop offset=".13" stop-color="#ffc7b7"/>
      <stop offset=".28" stop-color="#ff9071"/>
      <stop offset=".4" stop-color="#ff683e"/>
      <stop offset=".49" stop-color="#ff501e"/>
      <stop offset=".54" stop-color="#ff4713"/>
      <stop offset=".68" stop-color="#f94b13"/>
      <stop offset=".88" stop-color="#e85614"/>
      <stop offset="1" stop-color="#db6015"/>
    </linearGradient>
    <linearGradient id="linear-gradient-2" x1="105.86" y1="40.76" x2="212.13" y2="40.76" gradientUnits="userSpaceOnUse">
      <stop offset=".28" stop-color="#ff4713"/>
      <stop offset=".51" stop-color="#f94b13"/>
      <stop offset=".82" stop-color="#e85614"/>
      <stop offset="1" stop-color="#db6015"/>
    </linearGradient>
  </defs>
  <g id="Layer_1-2" data-name="Layer 1">
    <g>
      <path class="cls-3" d="M198.82,84.59c11.68-.53,17.53-1.13,17.53-1.8,0-.81-7.14-1.5-21.41-2.08-2.76-.11-5.52.29-8.09,1.21-5.22,1.87-11.06,4.41-17.17,4.41-6.75,0-12.79-2.76-18.47-5.09-2.49-1.02-5.2-1.55-7.93-1.57-10.42-.08-21.91-.12-34.47-.12H1.48c-.82,0-1.48.53-1.48,1.18v7.39c0,.65.66,1.18,1.48,1.18h81.82c.82,0,1.48-.53,1.48-1.18v-4.77c0-.65.66-1.18,1.48-1.18h13.55c20.6,0,30.91.23,30.91.69,0,.52-8.91.79-26.73.79h-5.2c-.82,0-1.48.53-1.48,1.18v.25c0,.61.58,1.12,1.34,1.18l38.89,2.97,1.81.07h59.24c1.88,0,2.02-2.21.15-2.36h0c-1.82-.15-1.75-2.28.07-2.36Z"/>
      <path class="cls-2" d="M98.92,5.85h-12.39c-2.25,0-4.08,1.73-4.08,3.87v57.88c0,2.14,1.83,3.87,4.08,3.87h12.39c2.25,0,4.08-1.73,4.08-3.87V9.72c0-2.14-1.83-3.87-4.08-3.87Z"/>
      <path class="cls-1" d="M188.57,77.33c3.98-1.91,7.66-4.48,11.05-7.69,8.34-7.93,12.52-17.56,12.52-28.9s-4.14-20.73-12.43-28.73c-8.28-8-18.22-12-29.79-12-10.47,0-19.56,2.9-27.26,8.7h-19.07l-17.71,29.37,15.64,36.25h23.08l-.07-.14c1.24.85,2.51,1.62,3.81,2.32,6.23,3.35,13.18,5.03,20.87,5.03,7.09,0,13.55-1.4,19.38-4.2ZM156.43,28.1c3.51-3.49,7.76-5.23,12.76-5.23s9.29,1.74,12.79,5.21c3.49,3.47,5.24,7.69,5.24,12.66s-1.75,9.19-5.24,12.66c-3.49,3.47-7.76,5.21-12.79,5.21s-9.19-1.74-12.73-5.23c-3.53-3.49-5.3-7.7-5.3-12.63s1.76-9.14,5.27-12.63Z"/>
    </g>
  </g>
</svg>