<svg width="50" height="55" viewBox="0 0 50 55" fill="none" xmlns="http://www.w3.org/2000/svg">
<g clip-path="url(#clip0_2021_3641)">
<path d="M41.5755 38.3921C42.5499 37.2165 42.9913 36.1983 43.4186 35.2107C43.6488 34.6798 43.954 33.8757 43.6628 33.0258C43.5807 32.7854 43.4468 32.3987 43.1228 32.2829C42.5687 32.0862 41.606 32.6762 40.8758 33.7403C39.9178 35.1365 38.7274 36.9915 37.746 37.9398C36.7645 38.888 34.7875 40.5552 33.2778 41.3024C32.6767 41.5996 32.0146 41.9273 31.491 42.3031C32.1766 42.3512 32.9279 42.3731 33.7497 42.3731C36.6025 42.3731 39.3261 40.5595 41.5755 38.3921Z" fill="#466646"/>
<path d="M47.9668 40.3301C46.767 41.722 45.3112 43.6382 43.6864 44.4422C42.0804 45.2376 42.7942 44.2325 43.1159 43.8785C45.9663 40.7365 52.0311 33.4234 49.3216 30.7381C49.284 30.701 49.2394 30.6704 49.1901 30.6507C48.9154 30.5349 47.9856 30.2509 47.2154 31.3259C46.6965 32.0513 44.5505 35.5276 41.5756 38.3899C39.3239 40.5574 36.6003 42.3709 33.7498 42.3709C32.928 42.3709 32.1767 42.3469 31.4911 42.301C26.713 41.9689 25.1938 40.4416 25.7433 37.1663C25.755 37.0986 25.7832 37.0352 25.8301 36.9828C26.2762 36.4605 28.7698 33.4912 29.1854 31.7519C29.6409 29.8401 30.0987 26.8664 26.9031 25.5925C26.9031 25.5925 25.9898 24.9545 25.762 26.2305C25.5343 27.5066 25.3371 31.162 22.7942 31.7519C20.2795 32.3375 16.666 35.0338 15.0365 38.2544C14.9121 38.4991 14.5716 38.5625 14.365 38.3702C12.82 36.9478 7.7672 31.7301 7.95973 24.5284C8.13114 18.1571 12.6392 14.6524 14.8275 14.104C17.8306 13.3523 16.7458 13.3764 14.6843 13.372C13.6888 13.3698 12.4091 13.3786 10.8078 13.5905C8.01843 13.9598 4.65145 15.0763 2.59697 18.4761C1.13888 20.8839 -0.373208 23.7877 0.082298 29.3113C0.537804 34.8349 1.22341 36.5327 3.05013 40.5683C4.87685 44.6039 10.5824 49.7015 12.6369 50.7633C14.6914 51.8252 21.7822 55.957 29.7536 54.799C37.0581 53.7371 40.7092 51.8252 45.0459 48.2157C48.0043 45.7532 49.2464 43.1007 49.6691 41.0621C49.8592 40.1444 48.596 39.6047 47.9668 40.3345V40.3301Z" fill="#689968"/>
<path d="M16.1563 0C15.1936 0 15.3556 1.55788 16.1563 2.51927C16.9569 3.48065 21.4979 9.37351 21.7656 12.3188C21.7656 12.3188 21.2302 7.49881 19.8966 5.08879C19.1406 3.72318 17.76 0 16.1563 0Z" fill="#689968"/>
<path d="M34.2921 1.66057C34.2921 1.66057 33.4468 3.14198 31.5473 3.49594C29.1993 3.93293 28.2601 3.71444 26.147 5.24391C23.9962 6.79961 24.2522 9.45653 22.7612 10.809C23.2449 10.6255 24.0432 10.3152 25.2078 9.83235C27.3209 8.95836 28.0253 8.52137 29.6689 7.42888C30.7819 6.68818 32.9561 4.36993 32.9561 4.36993C32.9561 4.36993 32.2118 6.7581 30.1385 8.30287C28.2108 9.73839 24.0901 10.6473 22.6743 10.9292C23.0289 10.9576 25.3017 11.1258 27.0862 10.9248C29.0279 10.7063 30.4531 10.1229 32.0169 8.52137C34.3649 6.1179 34.2921 1.66057 34.2921 1.66057Z" fill="#689968"/>
</g>
<defs>
<clipPath id="clip0_2021_3641">
<rect width="50" height="55" fill="white"/>
</clipPath>
</defs>
</svg>
